/* XPM */
static char *_428be0862224fa8ed3e97624e53c06d[] = {
/* columns rows colors chars-per-pixel */
"128 128 2 1 ",
"  c #13E7AC",
". c None",
/* pixels */
"................................................................................................................................",
"................................................................               .................................................",
"...........................................................                         ............................................",
".......................................................                                 ........................................",
"....................................................                                       .....................................",
".................................................                                             ..................................",
"...............................................                                                 ................................",
".............................................                                                     ..............................",
"...........................................                                                         ............................",
"........................................... .                                                         ..........................",
"..................................................                                                     .........................",
".....................................................                                                    .......................",
".....................................................                                                          .................",
"..............................................                                              ....                   .............",
"..........................................                                                   ......                  ...........",
".......................................                                                       ....                     .........",
"....................................                                                            .                       ........",
"..................................                                                                                        ......",
"................................                                                                                           .....",
"..............................                                                                                              ....",
"............................                                                                                                 ...",
"...........................                                                                                                  ...",
".........................                                                                                                     ..",
"........................                                                                                                      ..",
"......................                                                                                                         .",
"..........................                                                                                   ...............    ",
".........................                                                                                 ......................",
"......................                                                                                 .........................",
"....................                                                                                 ...........................",
"...................                                                                                .............................",
".................                                                                                ...............................",
"................                                                                                ................................",
"...............                                                                                .................................",
"..............                                                                               ...................................",
".............                                                                               ....................................",
"............                                                                               .....................................",
"...........                                                                               ......................................",
"..........                                      .                                        .......................................",
"..........                                     .                                         .......................................",
".........                                     .                                         ........................................",
"........  ....                               ..                                        .........................................",
"............                                 .                                         .........................................",
"...........                                 ..                                        ..........................................",
"..........                                 ..                                        ...........................................",
".........                                  .                                         ...........................................",
"........                                  ..                                        ............................................",
".......                                  ..                                         ............................................",
".......                                  ..                                         ............................................",
"......                                  ..                                         .............................................",
".....                                   ..                   .                     .............................................",
".....                                  ..                    .                     .............................................",
"....                                   ..                   ..                    ..............................................",
"....                                  ...                   .                     ..............................................",
"...                                   ..                    .                     ..............................................",
"...                                  ...                   ..                     ..............................................",
"..              .                    ..                    ..                    ...............................................",
"..             .                    ...                    .                     ...............................................",
"..            ..                    ...                   ..                     ...............................................",
"..           ..                    ....                   ..                     ...............................................",
".           ..                     ...                    ..                     ...............................................",
".           ..                     ...                    ..                     ...............................................",
".          ..                     ....                   ...                     ...............................................",
".         ...                     ...                    ...                     ...............................................",
".         ..                      ...                    ...                     ...............................................",
".        ...                     ....                    ...                     ...............................................",
"         ..                      ....                    ...                      ..............................................",
"        ...                      ...                    ....                      ..............................................",
"        ...                     ....                    ....                      ..............................................",
"       ...                      ....                    ....                      ..............................................",
"       ...                      ....                    ....                      ..............................................",
"      ....                      ....                    ....                       .............................................",
"      ...                      .....                    ....                       .............................................",
"      ...                      .....                    ....                       .............................................",
"     ....                      ....                     ....                        ............................................",
".    ....                      ....                     ....                        ............................................",
".    ...                       ....                     ....                         ...........................................",
".   ....                      .....                     ....                         ...........................................",
".   ....                      .....                     .....                         ..........................................",
".   ....                      .....                     .....                         ..........................................",
".   ....                      .....                     .....                          .........................................",
".   ....                      .....                     .....                          .........................................",
".. .....                      .....                     ......                          ........................................",
".. ....                       .....                     ......                           .......................................",
".. ....                       .....                     ......                            ......................................",
".. ....                       .....                      .....                             .....................................",
".......                      ......                      ......                             ....................................",
".......                      ......                      ......                              ...................................",
".......                      ......                      .......                              ..................................",
".......                      ......                      .......                               .................................",
".......                      ......                       ......                                ................................",
".......                      ......                       .......                                 ..............................",
".......                      ......                       .......                                   ............................",
".......                      .......                      ........                                    ..........................",
"........                     .......                       .......                                      ........................",
"........                     .......                       ........                                        .....................",
"........                     .......                       ........                                          ...................",
"........                      ......                        ........                                         ...................",
"........                      ......                        .........                                       ....................",
"........                      ......                        .........                                      .....................",
".........                     .......                        .........                                     .....................",
".........                     .......                        ..........                                   ......................",
"..........                    .......                         ..........                                  ......................",
"...........                   .......                         ..........                                 .......................",
"...........                   ........                         ..........                               ........................",
"............                  ........                         ...........                             .........................",
".............                  .......                          ...........                            .........................",
"..............                 .......                          ............                          ..........................",
"..............                 ........                          ............                        ...........................",
"...............                ........                           ............                      ............................",
"................               ........                           .............                    .............................",
".................               ........                           .............                  ..............................",
"..................              ........                            ..............               ...............................",
"...................             .........                           ...............             ................................",
".....................           .........                            ................          .................................",
"......................           ........                             ................        ..................................",
".......................          .........                             .................    ....................................",
"........................         .........                             ................... .....................................",
"..........................        .........                             ........................................................",
"...........................       .........                              .......................................................",
".............................     ..........                              ......................................................",
"...............................    .........                               .....................................................",
".................................  ..........                               ....................................................",
".............................................                                 ..................................................",
"..............................................                                ..................................................",
"...............................................                            .....................................................",
"...............................................                         ........................................................",
".................................................                 ..............................................................",
".......................................................     ...................................................................."
};
