/* XPM */
static char *a9abb3743e6f4864c33e591e3388898c[] = {
/* columns rows colors chars-per-pixel */
"16 16 2 1 ",
"  c #13E7AC",
". c None",
/* pixels */
".......    .....",
"......       ...",
"....            ",
"...          ...",
"..         .....",
".          .....",
".         ......",
"          ......",
"          ......",
".          .....",
".   .  .   .....",
".  ..  .     ...",
".  ..  ..    ...",
"..  .   ..   ...",
"... .    .......",
"......   ......."
};
