/* XPM */
static char *d8cfd58401b34b7ba1f4ae5e83032390[] = {
/* columns rows colors chars-per-pixel */
"64 64 2 1 ",
"  c #13E7AC",
". c None",
/* pixels */
"..................................    ..........................",
".............................              .....................",
".........................                     ..................",
".......................                          ...............",
"......................                            ..............",
"..........................                          ............",
"..........................                    .          .......",
".....................                          ..          .....",
"..................                                           ...",
"................                                              ..",
"..............                                                ..",
"............                                                   .",
"............                                             ...    ",
"............                                        ............",
"..........                                        ..............",
"........                                        ................",
".......                                        .................",
"......                                        ..................",
".....                                        ...................",
".....                                       ....................",
".......               .                     ....................",
"......                .                    .....................",
"....                 .                    ......................",
"....                ..                    ......................",
"...                 .                     ......................",
"..                 ..                    .......................",
"..                 .          .          .......................",
".                 ..          .          .......................",
".      .          ..         .           .......................",
".     .           .          .           .......................",
".     .          ..          .           .......................",
"     .           ..         ..           .......................",
"    ..           .          ..           .......................",
"    ..          ..          ..           .......................",
"    .           ..          ..           .......................",
"   ..           ..          ..            ......................",
"   .            ..          ..            ......................",
"  ..           ...          ..            ......................",
"  ..           ...          ..             .....................",
". ..           ...          ...            .....................",
". ..           ..           ...             ....................",
". ..           ..           ...              ...................",
"....           ..           ...               ..................",
"....           ...           ...               .................",
"....           ...           ...                ................",
"....           ...           ....                ...............",
"....           ...           ....                  .............",
"....           ...            ....                    ..........",
"....           ...            ....                    ..........",
"....           ...            .....                   ..........",
".....          ....            .....                 ...........",
"......         ....            .....                ............",
"......         ....             .....               ............",
".......         ...             ......             .............",
"........        ....             ......           ..............",
".........       ....              ......         ...............",
"..........      ....              ........      ................",
"...........     .....              ........    .................",
"............     ....               ............................",
"..............   .....               ...........................",
"................  ....                ..........................",
".......................                .........................",
"........................             ...........................",
"...........................    ................................."
};
