/* XPM */
static char *_d87a35f90bc4e40921bb3eedfc6ac05[] = {
/* columns rows colors chars-per-pixel */
"32 32 2 1 ",
"  c #13E7AC",
". c None",
/* pixels */
"................    ............",
"............            ........",
"............              ......",
"............           ..    ...",
"........                       .",
".......                         ",
"......                     .....",
".....                    .......",
"...                    .........",
"...                   ..........",
"...                   ..........",
"..                   ...........",
".         .          ...........",
".        .          ............",
"         .          ............",
"        ..    .     ............",
"  .     .     .     ............",
"  .     .     .      ...........",
" .      .     .      ...........",
" .     ..     .       ..........",
"..     ..     ..      ..........",
"..     ..     ..       .........",
"..     ..     ..        ........",
"..     ..      ..         ......",
"..     ..      ..          .....",
"...     .       ..        ......",
"...     ..      ...       ......",
"....    ..       ...     .......",
".....   ..       ....   ........",
".......  ..       ..............",
"...........        .............",
"............     ..............."
};
